<svg width="33" height="33" viewBox="0 0 33 33" fill="none" xmlns="http://www.w3.org/2000/svg">
<circle cx="16.0816" cy="16.0816" r="16.0816" fill="#3758F9"/>
<path d="M11.7098 11.8775C10.8527 11.9625 10.1869 12.3272 9.71232 12.9718C9.23775 13.6164 9.00046 14.4912 9.00046 15.5961C9.00046 16.3469 9.10671 16.9809 9.3192 17.498C9.52462 18.015 9.81149 18.4117 10.1798 18.6879C10.5481 18.9571 10.966 19.0917 11.4335 19.0917C11.8231 19.1058 12.1631 19.0244 12.4535 18.8473C12.7439 18.6631 12.9954 18.4117 13.2079 18.093C13.4133 17.7742 13.5939 17.4059 13.7497 16.988C13.8985 16.5701 14.026 16.1238 14.1322 15.6493L14.5997 13.6943C14.8122 12.7452 15.0955 11.8739 15.4497 11.0806C15.8039 10.2873 16.2395 9.60022 16.7565 9.0194C17.2736 8.43858 17.8828 7.9888 18.584 7.67005C19.2852 7.34423 20.0892 7.17777 20.9958 7.17069C22.3275 7.17777 23.482 7.51776 24.4595 8.19067C25.4299 8.85649 26.1843 9.8198 26.7226 11.0806C27.2538 12.3343 27.5194 13.8466 27.5194 15.6174C27.5194 17.374 27.2503 18.904 26.7119 20.2073C26.1736 21.5035 25.3768 22.5164 24.3214 23.246C23.2589 23.9684 21.945 24.3474 20.3796 24.3828L20.3796 19.931C21.1092 19.8815 21.7183 19.6725 22.207 19.3042C22.6887 18.9288 23.0535 18.4294 23.3014 17.8061C23.5422 17.1757 23.6626 16.4638 23.6626 15.6705C23.6626 14.8914 23.5493 14.2149 23.3226 13.6412C23.096 13.0604 22.7808 12.6106 22.377 12.2918C21.9733 11.9731 21.5094 11.8137 20.9852 11.8137C20.4965 11.8137 20.0856 11.9589 19.7527 12.2493C19.4198 12.5327 19.1365 12.9506 18.9027 13.5031C18.669 14.0485 18.4565 14.7178 18.2653 15.5111L17.6703 17.8805C17.224 19.715 16.5263 21.1635 15.5772 22.226C14.628 23.2885 13.3495 23.8162 11.7417 23.8091C10.4242 23.8162 9.27316 23.4655 8.2886 22.7572C7.30404 22.0418 6.53552 21.0608 5.98303 19.8142C5.43054 18.5675 5.1543 17.1509 5.1543 15.5643C5.1543 13.9493 5.43054 12.5397 5.98303 11.3356C6.53552 10.1244 7.30404 9.18231 8.2886 8.50941C9.27316 7.83651 10.4136 7.48943 11.7098 7.46819L11.7098 11.8775Z" fill="white"/>
</svg>
