<svg width="145" height="52" viewBox="0 0 145 52" fill="none" xmlns="http://www.w3.org/2000/svg">
<path d="M56.3675 21.1713C56.2862 20.3514 55.9372 19.7145 55.3206 19.2606C54.704 18.8066 53.8672 18.5796 52.8102 18.5796C52.092 18.5796 51.4856 18.6812 50.9909 18.8845C50.4963 19.081 50.1169 19.3554 49.8526 19.7078C49.5951 20.0601 49.4664 20.4599 49.4664 20.9071C49.4528 21.2797 49.5308 21.605 49.7002 21.8828C49.8763 22.1606 50.1169 22.4011 50.4218 22.6044C50.7267 22.8009 51.079 22.9737 51.4788 23.1227C51.8786 23.265 52.3054 23.387 52.7594 23.4886L54.6295 23.9358C55.5375 24.1391 56.3709 24.4101 57.1297 24.7489C57.8886 25.0877 58.5459 25.5044 59.1015 25.999C59.6571 26.4936 60.0874 27.0764 60.3923 27.7472C60.7039 28.418 60.8632 29.187 60.87 30.0543C60.8632 31.3281 60.5379 32.4326 59.8942 33.3676C59.2573 34.2959 58.3358 35.0175 57.1297 35.5325C55.9304 36.0407 54.4838 36.2947 52.7899 36.2947C51.1095 36.2947 49.646 36.0373 48.3992 35.5223C47.1593 35.0074 46.1903 34.2451 45.4924 33.2355C44.8013 32.2191 44.4388 30.9622 44.4049 29.4648H48.6635C48.7109 30.1627 48.9108 30.7454 49.2631 31.2129C49.6222 31.6737 50.0999 32.0226 50.6962 32.2598C51.2992 32.4902 51.9802 32.6054 52.7391 32.6054C53.4844 32.6054 54.1315 32.4969 54.6803 32.2801C55.2359 32.0633 55.6662 31.7618 55.9711 31.3756C56.276 30.9893 56.4285 30.5455 56.4285 30.0441C56.4285 29.5766 56.2896 29.1836 56.0118 28.8652C55.7407 28.5467 55.341 28.2757 54.8124 28.0521C54.2907 27.8285 53.6504 27.6252 52.8915 27.4423L50.625 26.8731C48.8701 26.4462 47.4845 25.7788 46.4681 24.8709C45.4518 23.9629 44.947 22.7399 44.9538 21.2018C44.947 19.9415 45.2824 18.8405 45.96 17.8986C46.6443 16.9568 47.5827 16.2216 48.7753 15.6931C49.9678 15.1646 51.3229 14.9004 52.8407 14.9004C54.3856 14.9004 55.7339 15.1646 56.8858 15.6931C58.0445 16.2216 58.9456 16.9568 59.5893 17.8986C60.233 18.8405 60.565 19.9314 60.5854 21.1713H56.3675ZM70.8023 36.3049C69.2033 36.3049 67.8278 35.9661 66.6759 35.2885C65.5308 34.6042 64.65 33.6556 64.0334 32.4427C63.4236 31.2299 63.1186 29.8341 63.1186 28.2553C63.1186 26.6563 63.4269 25.2537 64.0435 24.0476C64.6669 22.8348 65.5511 21.8895 66.6962 21.212C67.8413 20.5276 69.2033 20.1854 70.782 20.1854C72.1439 20.1854 73.3365 20.4328 74.3596 20.9274C75.3827 21.422 76.1924 22.1165 76.7887 23.0109C77.385 23.9053 77.7136 24.9556 77.7746 26.1616H73.6888C73.5736 25.3824 73.2687 24.7557 72.7741 24.2814C72.2862 23.8003 71.6459 23.5598 70.8531 23.5598C70.1823 23.5598 69.5962 23.7427 69.0948 24.1086C68.6002 24.4677 68.214 24.9928 67.9362 25.6839C67.6584 26.3751 67.5195 27.2119 67.5195 28.1944C67.5195 29.1904 67.655 30.0374 67.926 30.7353C68.2038 31.4332 68.5934 31.9651 69.0948 32.3309C69.5962 32.6968 70.1823 32.8798 70.8531 32.8798C71.3478 32.8798 71.7916 32.7781 72.1846 32.5749C72.5843 32.3716 72.913 32.0769 73.1704 31.6906C73.4347 31.2976 73.6075 30.8267 73.6888 30.2779H77.7746C77.7068 31.4704 77.3816 32.5207 76.7988 33.4286C76.2229 34.3298 75.4268 35.0345 74.4104 35.5426C73.394 36.0508 72.1914 36.3049 70.8023 36.3049ZM87.6002 36.3049C86.0215 36.3049 84.6562 35.9695 83.5043 35.2987C82.3592 34.6211 81.4749 33.6793 80.8516 32.4732C80.2282 31.2604 79.9165 29.8544 79.9165 28.2553C79.9165 26.6427 80.2282 25.2334 80.8516 24.0273C81.4749 22.8144 82.3592 21.8726 83.5043 21.2018C84.6562 20.5242 86.0215 20.1854 87.6002 20.1854C89.179 20.1854 90.5409 20.5242 91.686 21.2018C92.8379 21.8726 93.7255 22.8144 94.3488 24.0273C94.9722 25.2334 95.2839 26.6427 95.2839 28.2553C95.2839 29.8544 94.9722 31.2604 94.3488 32.4732C93.7255 33.6793 92.8379 34.6211 91.686 35.2987C90.5409 35.9695 89.179 36.3049 87.6002 36.3049ZM87.6205 32.9509C88.3388 32.9509 88.9384 32.7476 89.4195 32.3411C89.9006 31.9278 90.2631 31.3654 90.507 30.6539C90.7577 29.9425 90.8831 29.1328 90.8831 28.2248C90.8831 27.3169 90.7577 26.5072 90.507 25.7957C90.2631 25.0843 89.9006 24.5219 89.4195 24.1086C88.9384 23.6953 88.3388 23.4886 87.6205 23.4886C86.8955 23.4886 86.2857 23.6953 85.7911 24.1086C85.3032 24.5219 84.934 25.0843 84.6833 25.7957C84.4393 26.5072 84.3174 27.3169 84.3174 28.2248C84.3174 29.1328 84.4393 29.9425 84.6833 30.6539C84.934 31.3654 85.3032 31.9278 85.7911 32.3411C86.2857 32.7476 86.8955 32.9509 87.6205 32.9509ZM98.0992 36V20.3887H102.297V23.1126H102.459C102.744 22.1436 103.222 21.4118 103.892 20.9172C104.563 20.4158 105.336 20.1651 106.21 20.1651C106.427 20.1651 106.66 20.1787 106.911 20.2058C107.162 20.2329 107.382 20.2701 107.572 20.3176V24.1594C107.368 24.0984 107.087 24.0442 106.728 23.9968C106.369 23.9494 106.04 23.9256 105.742 23.9256C105.105 23.9256 104.536 24.0645 104.035 24.3424C103.54 24.6134 103.147 24.9928 102.856 25.4807C102.571 25.9685 102.429 26.5309 102.429 27.1678V36H98.0992ZM109.81 36V20.3887H114.14V36H109.81ZM111.985 18.3763C111.342 18.3763 110.789 18.1629 110.329 17.736C109.875 17.3024 109.648 16.784 109.648 16.181C109.648 15.5847 109.875 15.0732 110.329 14.6463C110.789 14.2126 111.342 13.9958 111.985 13.9958C112.629 13.9958 113.178 14.2126 113.632 14.6463C114.092 15.0732 114.323 15.5847 114.323 16.181C114.323 16.784 114.092 17.3024 113.632 17.736C113.178 18.1629 112.629 18.3763 111.985 18.3763ZM126.003 20.3887V23.6411H116.368V20.3887H126.003ZM118.574 36V19.2606C118.574 18.129 118.794 17.1906 119.234 16.4452C119.682 15.6999 120.291 15.1409 121.064 14.7682C121.836 14.3956 122.714 14.2092 123.696 14.2092C124.36 14.2092 124.967 14.2601 125.516 14.3617C126.071 14.4633 126.484 14.5548 126.755 14.6361L125.983 17.8885C125.814 17.8343 125.604 17.7834 125.353 17.736C125.109 17.6886 124.858 17.6649 124.601 17.6649C123.964 17.6649 123.52 17.8139 123.269 18.1121C123.019 18.4034 122.893 18.8134 122.893 19.3419V36H118.574ZM131.321 41.8542C130.773 41.8542 130.258 41.8102 129.777 41.7221C129.302 41.6408 128.909 41.5358 128.598 41.407L129.573 38.175C130.082 38.3309 130.539 38.4155 130.945 38.4291C131.359 38.4427 131.714 38.3478 132.013 38.1445C132.318 37.9412 132.565 37.5957 132.755 37.1078L133.009 36.4472L127.408 20.3887H131.962L135.194 31.8533H135.356L138.619 20.3887H143.203L137.135 37.6872C136.844 38.5273 136.447 39.2591 135.946 39.8825C135.451 40.5126 134.825 40.9971 134.066 41.3359C133.307 41.6815 132.392 41.8542 131.321 41.8542Z" fill="#111928"/>
<circle cx="16.0816" cy="25.9107" r="16.0816" fill="#3758F9"/>
<path d="M11.7098 21.7066C10.8527 21.7916 10.1869 22.1563 9.71232 22.8009C9.23775 23.4455 9.00046 24.3203 9.00046 25.4252C9.00046 26.176 9.10671 26.81 9.3192 27.3271C9.52462 27.8441 9.81149 28.2408 10.1798 28.517C10.5481 28.7862 10.966 28.9208 11.4335 28.9208C11.8231 28.9349 12.1631 28.8535 12.4535 28.6764C12.7439 28.4922 12.9954 28.2408 13.2079 27.9221C13.4133 27.6033 13.5939 27.235 13.7497 26.8171C13.8985 26.3992 14.026 25.9529 14.1322 25.4784L14.5997 23.5234C14.8122 22.5743 15.0955 21.703 15.4497 20.9097C15.8039 20.1164 16.2395 19.4293 16.7565 18.8485C17.2736 18.2677 17.8828 17.8179 18.584 17.4992C19.2852 17.1733 20.0892 17.0069 20.9958 16.9998C22.3275 17.0069 23.482 17.3469 24.4595 18.0198C25.4299 18.6856 26.1843 19.6489 26.7226 20.9097C27.2538 22.1634 27.5194 23.6757 27.5194 25.4465C27.5194 27.2031 27.2503 28.7331 26.7119 30.0364C26.1736 31.3326 25.3768 32.3455 24.3214 33.0751C23.2589 33.7975 21.945 34.1765 20.3796 34.2119L20.3796 29.7601C21.1092 29.7106 21.7183 29.5016 22.207 29.1333C22.6887 28.7579 23.0535 28.2585 23.3014 27.6352C23.5422 27.0048 23.6626 26.2929 23.6626 25.4996C23.6626 24.7205 23.5493 24.044 23.3226 23.4703C23.096 22.8895 22.7808 22.4397 22.377 22.1209C21.9733 21.8022 21.5094 21.6428 20.9852 21.6428C20.4965 21.6428 20.0856 21.788 19.7527 22.0784C19.4198 22.3618 19.1365 22.7797 18.9027 23.3322C18.669 23.8776 18.4565 24.5469 18.2653 25.3402L17.6703 27.7096C17.224 29.5441 16.5263 30.9926 15.5772 32.0551C14.628 33.1176 13.3495 33.6453 11.7417 33.6382C10.4242 33.6453 9.27316 33.2946 8.2886 32.5863C7.30404 31.8709 6.53552 30.8899 5.98303 29.6433C5.43054 28.3966 5.1543 26.98 5.1543 25.3934C5.1543 23.7784 5.43054 22.3688 5.98303 21.1647C6.53552 19.9535 7.30404 19.0114 8.2886 18.3385C9.27316 17.6656 10.4136 17.3185 11.7098 17.2973L11.7098 21.7066Z" fill="white"/>
</svg>
